<?xml version="1.0" encoding="UTF-8" standalone="no"?>
<!-- Created with Inkscape (http://www.inkscape.org/) -->

<svg
   xmlns:dc="http://purl.org/dc/elements/1.1/"
   xmlns:cc="http://creativecommons.org/ns#"
   xmlns:rdf="http://www.w3.org/1999/02/22-rdf-syntax-ns#"
   xmlns:svg="http://www.w3.org/2000/svg"
   xmlns="http://www.w3.org/2000/svg"
   xmlns:sodipodi="http://sodipodi.sourceforge.net/DTD/sodipodi-0.dtd"
   xmlns:inkscape="http://www.inkscape.org/namespaces/inkscape"
   width="70"
   height="70"
   viewBox="0 0 18.520834 18.520834"
   version="1.1"
   id="svg8"
   inkscape:version="0.92.1 r15371"
   sodipodi:docname="反馈.svg">
  <defs
     id="defs2" />
  <sodipodi:namedview
     id="base"
     pagecolor="#ffffff"
     bordercolor="#666666"
     borderopacity="1.0"
     inkscape:pageopacity="0.0"
     inkscape:pageshadow="2"
     inkscape:zoom="1.4142136"
     inkscape:cx="-44.072099"
     inkscape:cy="52.338669"
     inkscape:document-units="mm"
     inkscape:current-layer="layer1"
     showgrid="true"
     units="px"
     inkscape:window-width="1280"
     inkscape:window-height="745"
     inkscape:window-x="0"
     inkscape:window-y="27"
     inkscape:window-maximized="1"
     inkscape:snap-global="true"
     inkscape:snap-bbox="true"
     inkscape:bbox-paths="true"
     inkscape:bbox-nodes="true"
     inkscape:snap-bbox-edge-midpoints="true"
     inkscape:snap-bbox-midpoints="true"
     inkscape:object-paths="true"
     inkscape:snap-intersection-paths="true"
     inkscape:snap-smooth-nodes="true"
     inkscape:snap-midpoints="true"
     inkscape:snap-object-midpoints="true"
     inkscape:snap-center="true">
    <inkscape:grid
       type="xygrid"
       id="grid10" />
  </sodipodi:namedview>
  <metadata
     id="metadata5">
    <rdf:RDF>
      <cc:Work
         rdf:about="">
        <dc:format>image/svg+xml</dc:format>
        <dc:type
           rdf:resource="http://purl.org/dc/dcmitype/StillImage" />
        <dc:title></dc:title>
      </cc:Work>
    </rdf:RDF>
  </metadata>
  <g
     inkscape:label="Layer 1"
     inkscape:groupmode="layer"
     id="layer1"
     transform="translate(0,-278.47916)">
    <rect
       id="rect12"
       width="18.520834"
       height="18.520838"
       x="-3.1789145e-07"
       y="278.47916"
       style="fill:#c9d6e0;fill-opacity:1;stroke-width:0.26458329"
       ry="0.79375339" />
    <path
       inkscape:connector-curvature="0"
       style="fill:#b3b3b3;fill-opacity:1;stroke:none;stroke-width:1.40316534;stroke-miterlimit:4;stroke-dasharray:none;stroke-opacity:1"
       d="m 10.081038,283.10988 a 5.953125,4.6302112 0 0 0 -5.8471879,4.68447 5.953125,4.6302112 0 0 0 1.7110067,3.19308 l -1.1823568,2.83756 3.3062583,-1.7632 a 5.953125,4.6302112 0 0 0 2.1528397,0.30799 5.953125,4.6302112 0 0 0 5.917985,-4.63021 l -0.0016,-0.10955 a 5.953125,4.6302112 0 0 0 -6.056984,-4.52014 z"
       id="path4709-2" />
    <path
       style="fill:#f9f9f9;fill-opacity:1;stroke:none;stroke-width:5.30330229;stroke-miterlimit:4;stroke-dasharray:none;stroke-opacity:1"
       d="M 35.601562 16.001953 A 22.5 17.500011 0 0 0 13.501953 33.707031 A 22.5 17.500011 0 0 0 19.96875 45.775391 L 15.5 56.5 L 27.996094 49.835938 A 22.5 17.500011 0 0 0 36.132812 51 A 22.5 17.500011 0 0 0 58.5 33.5 L 58.494141 33.085938 A 22.5 17.500011 0 0 0 35.601562 16.001953 z "
       transform="matrix(0.26458333,0,0,0.26458333,0,278.47916)"
       id="path4709" />
  </g>
</svg>
