<?xml version="1.0" encoding="UTF-8" standalone="no"?>
<!-- Created with Inkscape (http://www.inkscape.org/) -->

<svg
   xmlns:dc="http://purl.org/dc/elements/1.1/"
   xmlns:cc="http://creativecommons.org/ns#"
   xmlns:rdf="http://www.w3.org/1999/02/22-rdf-syntax-ns#"
   xmlns:svg="http://www.w3.org/2000/svg"
   xmlns="http://www.w3.org/2000/svg"
   xmlns:sodipodi="http://sodipodi.sourceforge.net/DTD/sodipodi-0.dtd"
   xmlns:inkscape="http://www.inkscape.org/namespaces/inkscape"
   width="70"
   height="70"
   viewBox="0 0 18.520834 18.520834"
   version="1.1"
   id="svg8"
   inkscape:version="0.92.1 r15371"
   sodipodi:docname="签到天数.svg">
  <defs
     id="defs2" />
  <sodipodi:namedview
     id="base"
     pagecolor="#ffffff"
     bordercolor="#666666"
     borderopacity="1.0"
     inkscape:pageopacity="0.0"
     inkscape:pageshadow="2"
     inkscape:zoom="5.6575343"
     inkscape:cx="5.2712576"
     inkscape:cy="32.727648"
     inkscape:document-units="mm"
     inkscape:current-layer="layer1"
     showgrid="true"
     units="px"
     inkscape:window-width="1280"
     inkscape:window-height="745"
     inkscape:window-x="0"
     inkscape:window-y="27"
     inkscape:window-maximized="1"
     inkscape:snap-global="true"
     inkscape:snap-bbox="true"
     inkscape:bbox-paths="true"
     inkscape:bbox-nodes="true"
     inkscape:snap-bbox-edge-midpoints="true"
     inkscape:snap-bbox-midpoints="true"
     inkscape:object-paths="true"
     inkscape:snap-intersection-paths="true"
     inkscape:snap-smooth-nodes="true"
     inkscape:snap-midpoints="true"
     inkscape:snap-object-midpoints="true"
     inkscape:snap-center="true">
    <inkscape:grid
       type="xygrid"
       id="grid10" />
  </sodipodi:namedview>
  <metadata
     id="metadata5">
    <rdf:RDF>
      <cc:Work
         rdf:about="">
        <dc:format>image/svg+xml</dc:format>
        <dc:type
           rdf:resource="http://purl.org/dc/dcmitype/StillImage" />
        <dc:title />
      </cc:Work>
    </rdf:RDF>
  </metadata>
  <g
     inkscape:label="Layer 1"
     inkscape:groupmode="layer"
     id="layer1"
     transform="translate(0,-278.47916)">
    <rect
       id="rect12"
       width="18.520834"
       height="18.520838"
       x="-3.1789145e-07"
       y="278.47916"
       style="fill:#c9d6e0;fill-opacity:1;stroke-width:0.26458329"
       ry="0.79375339" />
    <path
       inkscape:connector-curvature="0"
       style="fill:#b3b3b3;fill-opacity:1;stroke:none;stroke-width:0.26458332px;stroke-linecap:butt;stroke-linejoin:miter;stroke-opacity:1"
       d="m 6.6145834,280.86041 c -0.5291667,0 -0.5291667,0.52917 -0.5291667,0.52917 v 0.26458 4.23333 c 0,0 0,0.52917 0.5291667,0.52917 0.5291666,0 0.5291666,-0.52917 0.5291666,-0.52917 v -4.23333 -0.26458 c 0,0 0,-0.52917 -0.5291666,-0.52917 z"
       id="path4643-7" />
    <path
       style="fill:#b3b3b3;fill-opacity:1;stroke:none;stroke-width:0.24536441px;stroke-linecap:butt;stroke-linejoin:miter;stroke-opacity:1"
       d="m 4.497916,283.50625 c -1.3229167,0 -1.3229167,1.1377 -1.3229167,1.1377 v 9.10167 c 0,1.13771 1.3229167,1.13771 1.3229167,1.13771 H 15.08125 c 1.322917,0 1.322917,-1.13771 1.322917,-1.13771 v -9.10167 c 0,-1.1377 -1.322917,-1.1377 -1.322917,-1.1377 h -1.322916 v 2.27542 c 0,0 0,0.68261 -0.79375,0.68261 -0.79375,0 -0.79375,-0.68261 -0.79375,-0.68261 v -2.27542 H 7.4083326 v 2.27542 c 0,0 0,0.68261 -0.79375,0.68261 -0.79375,0 -0.79375,-0.68261 -0.79375,-0.68261 v -2.27542 z"
       id="path4603-2"
       inkscape:connector-curvature="0"
       sodipodi:nodetypes="scscscscccsccccsccs" />
    <path
       inkscape:connector-curvature="0"
       style="fill:#b3b3b3;fill-opacity:1;stroke:none;stroke-width:0.26458332px;stroke-linecap:butt;stroke-linejoin:miter;stroke-opacity:1"
       d="m 12.964583,280.86041 c -0.529166,0 -0.529166,0.52917 -0.529166,0.52917 v 0.26458 4.23333 c 0,0 0,0.52917 0.529166,0.52917 0.529167,0 0.529167,-0.52917 0.529167,-0.52917 v -4.23333 -0.26458 c 0,0 0,-0.52917 -0.529167,-0.52917 z"
       id="path4643-7-0" />
    <path
       style="fill:#f9f9f9;fill-opacity:1;stroke:none;stroke-width:0.24536446px;stroke-linecap:butt;stroke-linejoin:miter;stroke-opacity:1"
       d="m 3.96875,282.97708 c -1.3229167,0 -1.3229167,1.13771 -1.3229167,1.13771 v 9.10166 c 0,1.13771 1.3229167,1.13771 1.3229167,1.13771 h 10.583333 c 1.322917,0 1.322917,-1.13771 1.322917,-1.13771 v -9.10166 c 0,-1.13771 -1.322917,-1.13771 -1.322917,-1.13771 h -1.322916 v 2.27542 c 0,0 0,0.68262 -0.79375,0.68262 -0.79375,0 -0.79375,-0.68262 -0.79375,-0.68262 v -2.27542 H 6.8791666 v 2.27542 c 0,0 0,0.68262 -0.79375,0.68262 -0.79375,0 -0.79375,-0.68262 -0.79375,-0.68262 v -2.27542 z"
       id="path4603"
       inkscape:connector-curvature="0"
       sodipodi:nodetypes="scscscscccsccccsccs" />
    <path
       style="fill:#b3b3b3;fill-opacity:1;stroke:none;stroke-width:0.24052997;stroke-opacity:1"
       id="path4492"
       sodipodi:type="arc"
       sodipodi:cx="6.0854168"
       sodipodi:cy="285.35834"
       sodipodi:rx="1.3229165"
       sodipodi:ry="1.3229133"
       sodipodi:start="0"
       sodipodi:end="6.2595361"
       sodipodi:open="true"
       d="m 7.4083333,285.35834 a 1.3229165,1.3229133 0 0 1 -1.3150951,1.32289 1.3229165,1.3229133 0 0 1 -1.3306454,-1.30725 1.3229165,1.3229133 0 0 1 1.2993608,-1.33835 1.3229165,1.3229133 0 0 1 1.3460098,1.29142" />
    <path
       style="fill:#f9f9f9;fill-opacity:1;stroke:none;stroke-width:0.99999994px;stroke-linecap:butt;stroke-linejoin:miter;stroke-opacity:1"
       d="M 23 7 C 21 7 21 9 21 9 L 21 10 L 21 26 C 21 26 21 28 23 28 C 25 28 25 26 25 26 L 25 10 L 25 9 C 25 9 25 7 23 7 z "
       transform="matrix(0.26458333,0,0,0.26458333,0,278.47916)"
       id="path4643" />
    <path
       style="fill:#b3b3b3;fill-opacity:1;stroke:none;stroke-width:0.24052998;stroke-opacity:1"
       id="path4492-3"
       sodipodi:type="arc"
       sodipodi:cx="12.435416"
       sodipodi:cy="285.35834"
       sodipodi:rx="1.3229165"
       sodipodi:ry="1.3229133"
       sodipodi:start="0"
       sodipodi:end="6.2595361"
       sodipodi:open="true"
       d="m 13.758333,285.35834 a 1.3229165,1.3229133 0 0 1 -1.315095,1.32289 1.3229165,1.3229133 0 0 1 -1.330646,-1.30725 1.3229165,1.3229133 0 0 1 1.299361,-1.33835 1.3229165,1.3229133 0 0 1 1.34601,1.29142" />
    <path
       style="fill:#f9f9f9;fill-opacity:1;stroke:none;stroke-width:0.99999994px;stroke-linecap:butt;stroke-linejoin:miter;stroke-opacity:1"
       d="M 47 7 C 44.999999 7 45 9 45 9 L 45 10 L 45 26 C 45 26 45.000003 28 47 28 C 49.000001 28 49 26 49 26 L 49 10 L 49 9 C 49 9 48.999997 7 47 7 z "
       transform="matrix(0.26458333,0,0,0.26458333,0,278.47916)"
       id="path4643-1" />
  </g>
</svg>
