<?xml version="1.0" encoding="UTF-8" standalone="no"?>
<!-- Created with Inkscape (http://www.inkscape.org/) -->

<svg
   xmlns:dc="http://purl.org/dc/elements/1.1/"
   xmlns:cc="http://creativecommons.org/ns#"
   xmlns:rdf="http://www.w3.org/1999/02/22-rdf-syntax-ns#"
   xmlns:svg="http://www.w3.org/2000/svg"
   xmlns="http://www.w3.org/2000/svg"
   xmlns:sodipodi="http://sodipodi.sourceforge.net/DTD/sodipodi-0.dtd"
   xmlns:inkscape="http://www.inkscape.org/namespaces/inkscape"
   width="70"
   height="70"
   viewBox="0 0 18.520834 18.520834"
   version="1.1"
   id="svg8"
   inkscape:version="0.92.1 r15371"
   sodipodi:docname="签到.svg">
  <defs
     id="defs2" />
  <sodipodi:namedview
     id="base"
     pagecolor="#ffffff"
     bordercolor="#666666"
     borderopacity="1.0"
     inkscape:pageopacity="0.0"
     inkscape:pageshadow="2"
     inkscape:zoom="3.9999998"
     inkscape:cx="-9.2488761"
     inkscape:cy="30.927699"
     inkscape:document-units="mm"
     inkscape:current-layer="layer1"
     showgrid="true"
     units="px"
     inkscape:window-width="1280"
     inkscape:window-height="745"
     inkscape:window-x="0"
     inkscape:window-y="27"
     inkscape:window-maximized="1"
     inkscape:snap-global="true"
     inkscape:snap-bbox="true"
     inkscape:bbox-paths="true"
     inkscape:bbox-nodes="true"
     inkscape:snap-bbox-edge-midpoints="true"
     inkscape:snap-bbox-midpoints="true"
     inkscape:object-paths="true"
     inkscape:snap-intersection-paths="true"
     inkscape:snap-smooth-nodes="true"
     inkscape:snap-midpoints="true"
     inkscape:snap-object-midpoints="true"
     inkscape:snap-center="true">
    <inkscape:grid
       type="xygrid"
       id="grid90" />
  </sodipodi:namedview>
  <metadata
     id="metadata5">
    <rdf:RDF>
      <cc:Work
         rdf:about="">
        <dc:format>image/svg+xml</dc:format>
        <dc:type
           rdf:resource="http://purl.org/dc/dcmitype/StillImage" />
        <dc:title />
      </cc:Work>
    </rdf:RDF>
  </metadata>
  <g
     inkscape:label="Layer 1"
     inkscape:groupmode="layer"
     id="layer1"
     transform="translate(0,-278.47916)">
    <rect
       id="rect12"
       width="18.520834"
       height="18.520838"
       x="-3.1789145e-07"
       y="278.47916"
       style="fill:#c9d6e0;fill-opacity:1;stroke-width:0.26458332"
       ry="0.79375339" />
    <path
       style="fill:#b3b3b3;fill-opacity:1;stroke-width:0.88654387"
       d="m 9.7859643,281.91872 a 4.4029436,4.4626961 0 0 0 -4.402832,4.46298 4.4029436,4.4626961 0 0 0 0.4454509,1.9484 h -0.00775 l 0.033073,0.0565 a 4.4029436,4.4626961 0 0 0 0.2806031,0.48257 l 3.655074,6.27874 3.7852987,-6.50298 a 4.4029436,4.4626961 0 0 0 0.08733,-0.1502 l 0.09612,-0.16458 h -0.01757 a 4.4029436,4.4626961 0 0 0 0.448034,-1.9484 4.4029436,4.4626961 0 0 0 -4.4028327,-4.46298 z"
       id="path4494-6"
       inkscape:connector-curvature="0" />
    <path
       style="fill:#f9f9f9;fill-opacity:1;stroke-width:0.88654387"
       d="m 9.2567977,281.38955 a 4.4029436,4.4626961 0 0 0 -4.402832,4.46298 4.4029436,4.4626961 0 0 0 0.4454509,1.9484 h -0.00775 l 0.033073,0.0565 A 4.4029436,4.4626961 0 0 0 5.6053427,288.34 l 3.655074,6.27874 3.7852983,-6.50298 a 4.4029436,4.4626961 0 0 0 0.08733,-0.1502 l 0.09612,-0.16458 h -0.01757 a 4.4029436,4.4626961 0 0 0 0.448034,-1.9484 4.4029436,4.4626961 0 0 0 -4.4028317,-4.46298 z"
       id="path4494"
       inkscape:connector-curvature="0" />
    <ellipse
       style="fill:#c9d6e0;fill-opacity:1;stroke:none;stroke-width:0.93544388"
       id="path4518"
       cx="9.260417"
       cy="285.75519"
       rx="3.3072917"
       ry="3.3072953" />
    <path
       style="fill:#b3b3b3;fill-opacity:1;stroke:none;stroke-width:0.10016964px;stroke-linecap:butt;stroke-linejoin:miter;stroke-opacity:1"
       d="m 6.890191,286.41666 0.9480898,-1.05833 1.4221359,1.5875 2.3702263,-2.64583 0.948091,1.05833 -3.3183173,3.175 z"
       id="path4582-5"
       inkscape:connector-curvature="0" />
    <path
       style="fill:#b3b3b3;fill-opacity:1;stroke:none;stroke-width:0.93544382"
       d="m 9.2686848,282.44791 a 3.3072916,3.3072953 0 0 0 -3.3072916,3.30729 3.3072916,3.3072953 0 0 0 1.0123413,2.3766 3.3072916,3.3072956 0 0 1 -0.4831747,-1.71514 3.3072916,3.3072956 0 0 1 3.307292,-3.30729 3.3072916,3.3072956 0 0 1 2.2949502,0.93069 3.3072916,3.3072953 0 0 0 -2.8241172,-1.59215 z"
       id="path4518-6"
       inkscape:connector-curvature="0" />
    <path
       style="fill:#f9f9f9;fill-opacity:1;stroke:none;stroke-width:0.10016964px;stroke-linecap:butt;stroke-linejoin:miter;stroke-opacity:1"
       d="m 6.3830727,285.90402 0.9480898,-1.05833 1.4221357,1.5875 2.3702258,-2.64583 0.948091,1.05833 -3.3183168,3.175 z"
       id="path4582"
       inkscape:connector-curvature="0" />
  </g>
</svg>
